<mxfile host="app.diagrams.net" modified="2021-08-06T20:39:59.070Z" agent="5.0 (Windows NT 10.0; WOW64) AppleWebKit/537.36 (KHTML, like Gecko) Chrome/92.0.4515.107 Safari/537.36" etag="fApbesYAaReBO9iCf19C" version="14.9.5" type="github">
  <diagram id="C5RBs43oDa-KdzZeNtuy" name="Page-1">
    <mxGraphModel dx="2249" dy="802" grid="1" gridSize="10" guides="1" tooltips="1" connect="1" arrows="1" fold="1" page="1" pageScale="1" pageWidth="827" pageHeight="1169" math="0" shadow="0">
      <root>
        <mxCell id="WIyWlLk6GJQsqaUBKTNV-0" />
        <mxCell id="WIyWlLk6GJQsqaUBKTNV-1" parent="WIyWlLk6GJQsqaUBKTNV-0" />
        <mxCell id="WIyWlLk6GJQsqaUBKTNV-2" value="" style="rounded=0;html=1;jettySize=auto;orthogonalLoop=1;fontSize=11;endArrow=block;endFill=0;endSize=8;strokeWidth=1;shadow=0;labelBackgroundColor=none;edgeStyle=orthogonalEdgeStyle;" parent="WIyWlLk6GJQsqaUBKTNV-1" source="WIyWlLk6GJQsqaUBKTNV-3" target="WIyWlLk6GJQsqaUBKTNV-6" edge="1">
          <mxGeometry relative="1" as="geometry">
            <Array as="points">
              <mxPoint x="115" y="110" />
              <mxPoint x="115" y="110" />
            </Array>
          </mxGeometry>
        </mxCell>
        <mxCell id="WIyWlLk6GJQsqaUBKTNV-4" value="Yes" style="rounded=0;html=1;jettySize=auto;orthogonalLoop=1;fontSize=11;endArrow=block;endFill=0;endSize=8;strokeWidth=1;shadow=0;labelBackgroundColor=none;edgeStyle=orthogonalEdgeStyle;exitX=1;exitY=0.5;exitDx=0;exitDy=0;entryX=0;entryY=1;entryDx=0;entryDy=0;" parent="WIyWlLk6GJQsqaUBKTNV-1" source="WIyWlLk6GJQsqaUBKTNV-6" target="o_49SGEgrOtvmHauCr_D-13" edge="1">
          <mxGeometry x="-0.4667" y="-15" relative="1" as="geometry">
            <mxPoint as="offset" />
            <mxPoint x="190" y="205" as="sourcePoint" />
            <mxPoint x="250" y="155" as="targetPoint" />
            <Array as="points">
              <mxPoint x="210" y="205" />
            </Array>
          </mxGeometry>
        </mxCell>
        <mxCell id="WIyWlLk6GJQsqaUBKTNV-5" value="No" style="edgeStyle=orthogonalEdgeStyle;rounded=0;jettySize=auto;orthogonalLoop=1;fontSize=11;endArrow=block;endFill=0;endSize=8;strokeWidth=1;shadow=0;labelBackgroundColor=none;html=1;exitX=0.5;exitY=1;exitDx=0;exitDy=0;entryX=0.5;entryY=0;entryDx=0;entryDy=0;" parent="WIyWlLk6GJQsqaUBKTNV-1" source="WIyWlLk6GJQsqaUBKTNV-6" target="WIyWlLk6GJQsqaUBKTNV-10" edge="1">
          <mxGeometry x="-0.2" y="15" relative="1" as="geometry">
            <mxPoint as="offset" />
            <mxPoint x="160" y="270" as="sourcePoint" />
            <Array as="points">
              <mxPoint x="115" y="280" />
              <mxPoint x="115" y="280" />
            </Array>
          </mxGeometry>
        </mxCell>
        <mxCell id="WIyWlLk6GJQsqaUBKTNV-6" value="Is Canceled or Complete Status" style="rhombus;whiteSpace=wrap;html=1;shadow=0;fontFamily=Helvetica;fontSize=12;align=center;strokeWidth=1;spacing=6;spacingTop=-4;" parent="WIyWlLk6GJQsqaUBKTNV-1" vertex="1">
          <mxGeometry x="50" y="160" width="130" height="90" as="geometry" />
        </mxCell>
        <mxCell id="WIyWlLk6GJQsqaUBKTNV-8" value="No" style="rounded=0;html=1;jettySize=auto;orthogonalLoop=1;fontSize=11;endArrow=block;endFill=0;endSize=8;strokeWidth=1;shadow=0;labelBackgroundColor=none;edgeStyle=orthogonalEdgeStyle;" parent="WIyWlLk6GJQsqaUBKTNV-1" source="WIyWlLk6GJQsqaUBKTNV-10" target="WIyWlLk6GJQsqaUBKTNV-11" edge="1">
          <mxGeometry x="0.3333" y="20" relative="1" as="geometry">
            <mxPoint as="offset" />
          </mxGeometry>
        </mxCell>
        <mxCell id="WIyWlLk6GJQsqaUBKTNV-9" value="Yes" style="edgeStyle=orthogonalEdgeStyle;rounded=0;html=1;jettySize=auto;orthogonalLoop=1;fontSize=11;endArrow=block;endFill=0;endSize=8;strokeWidth=1;shadow=0;labelBackgroundColor=none;" parent="WIyWlLk6GJQsqaUBKTNV-1" source="WIyWlLk6GJQsqaUBKTNV-10" target="WIyWlLk6GJQsqaUBKTNV-12" edge="1">
          <mxGeometry x="0.0345" y="10" relative="1" as="geometry">
            <mxPoint as="offset" />
          </mxGeometry>
        </mxCell>
        <mxCell id="WIyWlLk6GJQsqaUBKTNV-10" value="Determine if it currently exists" style="rhombus;whiteSpace=wrap;html=1;shadow=0;fontFamily=Helvetica;fontSize=12;align=center;strokeWidth=1;spacing=6;spacingTop=-4;" parent="WIyWlLk6GJQsqaUBKTNV-1" vertex="1">
          <mxGeometry x="50" y="300" width="130" height="100" as="geometry" />
        </mxCell>
        <mxCell id="o_49SGEgrOtvmHauCr_D-24" style="edgeStyle=orthogonalEdgeStyle;rounded=0;orthogonalLoop=1;jettySize=auto;html=1;exitX=1;exitY=0.5;exitDx=0;exitDy=0;entryX=0;entryY=0.5;entryDx=0;entryDy=0;entryPerimeter=0;" edge="1" parent="WIyWlLk6GJQsqaUBKTNV-1" source="WIyWlLk6GJQsqaUBKTNV-11" target="o_49SGEgrOtvmHauCr_D-10">
          <mxGeometry relative="1" as="geometry" />
        </mxCell>
        <mxCell id="WIyWlLk6GJQsqaUBKTNV-11" value="Run Create API" style="rounded=1;whiteSpace=wrap;html=1;fontSize=12;glass=0;strokeWidth=1;shadow=0;" parent="WIyWlLk6GJQsqaUBKTNV-1" vertex="1">
          <mxGeometry x="55" y="515" width="120" height="40" as="geometry" />
        </mxCell>
        <mxCell id="o_49SGEgrOtvmHauCr_D-25" style="edgeStyle=orthogonalEdgeStyle;rounded=0;orthogonalLoop=1;jettySize=auto;html=1;entryX=0;entryY=0;entryDx=0;entryDy=45;entryPerimeter=0;" edge="1" parent="WIyWlLk6GJQsqaUBKTNV-1" source="WIyWlLk6GJQsqaUBKTNV-12" target="o_49SGEgrOtvmHauCr_D-10">
          <mxGeometry relative="1" as="geometry" />
        </mxCell>
        <mxCell id="WIyWlLk6GJQsqaUBKTNV-12" value="Run Update API" style="rounded=1;whiteSpace=wrap;html=1;fontSize=12;glass=0;strokeWidth=1;shadow=0;" parent="WIyWlLk6GJQsqaUBKTNV-1" vertex="1">
          <mxGeometry x="190" y="420" width="120" height="40" as="geometry" />
        </mxCell>
        <mxCell id="o_49SGEgrOtvmHauCr_D-2" value="" style="group;horizontal=0;" vertex="1" connectable="0" parent="WIyWlLk6GJQsqaUBKTNV-1">
          <mxGeometry x="-20" width="820" height="460" as="geometry" />
        </mxCell>
        <mxCell id="o_49SGEgrOtvmHauCr_D-6" style="edgeStyle=orthogonalEdgeStyle;rounded=0;orthogonalLoop=1;jettySize=auto;html=1;exitX=1;exitY=0.5;exitDx=0;exitDy=0;" edge="1" parent="o_49SGEgrOtvmHauCr_D-2" source="WIyWlLk6GJQsqaUBKTNV-3" target="o_49SGEgrOtvmHauCr_D-1">
          <mxGeometry relative="1" as="geometry" />
        </mxCell>
        <mxCell id="WIyWlLk6GJQsqaUBKTNV-3" value="&lt;b&gt;Raw Dataset from ASL01P&lt;/b&gt;&lt;br&gt;Use minus query against only data we need/want to track" style="rounded=1;whiteSpace=wrap;html=1;fontSize=12;glass=0;strokeWidth=1;shadow=0;" parent="o_49SGEgrOtvmHauCr_D-2" vertex="1">
          <mxGeometry y="10" width="507.910447761194" height="80" as="geometry" />
        </mxCell>
        <mxCell id="o_49SGEgrOtvmHauCr_D-1" value="&lt;span style=&quot;white-space: pre&quot;&gt;	&lt;/span&gt;&lt;b&gt;Required Fields:&lt;/b&gt;&lt;br&gt;&lt;ol&gt;&lt;li&gt;transactionId&lt;/li&gt;&lt;li&gt;priority&lt;/li&gt;&lt;li&gt;serviceType&lt;/li&gt;&lt;li&gt;street&lt;/li&gt;&lt;li&gt;city&lt;/li&gt;&lt;li&gt;state&lt;/li&gt;&lt;li&gt;zipCode&lt;/li&gt;&lt;li&gt;address2&lt;/li&gt;&lt;li&gt;logitude&lt;/li&gt;&lt;li&gt;latitude&lt;/li&gt;&lt;li&gt;earlyStart&lt;/li&gt;&lt;li&gt;dueDate&lt;/li&gt;&lt;li&gt;&lt;span&gt;futureAppt&lt;/span&gt;&lt;br&gt;&lt;/li&gt;&lt;li&gt;taskType&lt;/li&gt;&lt;li&gt;productType (QUANTUM)&lt;/li&gt;&lt;li&gt;onHold (false)&lt;/li&gt;&lt;li&gt;isInside (false)&lt;/li&gt;&lt;li&gt;durationSec&lt;/li&gt;&lt;li&gt;hostTrackingNum (jobid)&lt;/li&gt;&lt;li&gt;altTrackingNum (jobid)&lt;/li&gt;&lt;li&gt;manualScheduleFlag (true)&lt;/li&gt;&lt;li&gt;remarkType (Tech)&lt;/li&gt;&lt;li&gt;remarkText (QUANTUM)&lt;/li&gt;&lt;li&gt;tncktid (jobid)&lt;/li&gt;&lt;/ol&gt;" style="rounded=1;whiteSpace=wrap;html=1;align=left;verticalAlign=top;" vertex="1" parent="o_49SGEgrOtvmHauCr_D-2">
          <mxGeometry x="611.94" width="208.06" height="460" as="geometry" />
        </mxCell>
        <mxCell id="o_49SGEgrOtvmHauCr_D-19" style="edgeStyle=orthogonalEdgeStyle;rounded=0;orthogonalLoop=1;jettySize=auto;html=1;exitX=0.5;exitY=1;exitDx=0;exitDy=0;entryX=0.5;entryY=0;entryDx=0;entryDy=0;" edge="1" parent="o_49SGEgrOtvmHauCr_D-2" source="o_49SGEgrOtvmHauCr_D-13">
          <mxGeometry relative="1" as="geometry">
            <mxPoint x="305" y="220" as="targetPoint" />
            <Array as="points">
              <mxPoint x="305" y="190" />
              <mxPoint x="305" y="190" />
            </Array>
          </mxGeometry>
        </mxCell>
        <mxCell id="o_49SGEgrOtvmHauCr_D-13" value="Separate Cancel/Complete&lt;br&gt;(different API calls)" style="rounded=0;whiteSpace=wrap;html=1;verticalAlign=top;" vertex="1" parent="o_49SGEgrOtvmHauCr_D-2">
          <mxGeometry x="230" y="120" width="150" height="40" as="geometry" />
        </mxCell>
        <mxCell id="o_49SGEgrOtvmHauCr_D-18" style="edgeStyle=orthogonalEdgeStyle;rounded=0;orthogonalLoop=1;jettySize=auto;html=1;exitX=1;exitY=0.25;exitDx=0;exitDy=0;entryX=0.5;entryY=0;entryDx=0;entryDy=0;" edge="1" parent="o_49SGEgrOtvmHauCr_D-2" source="o_49SGEgrOtvmHauCr_D-13" target="o_49SGEgrOtvmHauCr_D-27">
          <mxGeometry relative="1" as="geometry">
            <mxPoint x="450" y="190" as="targetPoint" />
          </mxGeometry>
        </mxCell>
        <mxCell id="o_49SGEgrOtvmHauCr_D-30" value="Completed" style="edgeLabel;html=1;align=center;verticalAlign=middle;resizable=0;points=[];" vertex="1" connectable="0" parent="o_49SGEgrOtvmHauCr_D-18">
          <mxGeometry x="-0.1688" y="-1" relative="1" as="geometry">
            <mxPoint as="offset" />
          </mxGeometry>
        </mxCell>
        <mxCell id="o_49SGEgrOtvmHauCr_D-29" value="" style="edgeStyle=orthogonalEdgeStyle;rounded=0;orthogonalLoop=1;jettySize=auto;html=1;exitX=0.5;exitY=0;exitDx=0;exitDy=0;" edge="1" parent="o_49SGEgrOtvmHauCr_D-2" source="o_49SGEgrOtvmHauCr_D-26" target="o_49SGEgrOtvmHauCr_D-13">
          <mxGeometry relative="1" as="geometry" />
        </mxCell>
        <mxCell id="o_49SGEgrOtvmHauCr_D-31" value="Canceled" style="edgeLabel;html=1;align=center;verticalAlign=middle;resizable=0;points=[];" vertex="1" connectable="0" parent="o_49SGEgrOtvmHauCr_D-29">
          <mxGeometry x="-0.0667" y="2" relative="1" as="geometry">
            <mxPoint as="offset" />
          </mxGeometry>
        </mxCell>
        <mxCell id="o_49SGEgrOtvmHauCr_D-26" value="Run Canel API" style="rounded=1;whiteSpace=wrap;html=1;fontSize=12;glass=0;strokeWidth=1;shadow=0;" vertex="1" parent="o_49SGEgrOtvmHauCr_D-2">
          <mxGeometry x="245" y="220" width="120" height="40" as="geometry" />
        </mxCell>
        <mxCell id="o_49SGEgrOtvmHauCr_D-27" value="Run Complete API" style="rounded=1;whiteSpace=wrap;html=1;fontSize=12;glass=0;strokeWidth=1;shadow=0;" vertex="1" parent="o_49SGEgrOtvmHauCr_D-2">
          <mxGeometry x="387.90999999999997" y="180" width="120" height="40" as="geometry" />
        </mxCell>
        <mxCell id="o_49SGEgrOtvmHauCr_D-10" value="DWOPS01P.FIELDSYS&lt;br&gt;&lt;br&gt;Log into table:&lt;br&gt;&lt;font style=&quot;font-size: 10px&quot;&gt;FATBOT_DISPATCH_SERVICES_T&lt;/font&gt;" style="shape=cylinder3;whiteSpace=wrap;html=1;boundedLbl=1;backgroundOutline=1;size=15;verticalAlign=top;" vertex="1" parent="WIyWlLk6GJQsqaUBKTNV-1">
          <mxGeometry x="390" y="460" width="180" height="150" as="geometry" />
        </mxCell>
        <mxCell id="o_49SGEgrOtvmHauCr_D-20" value="" style="curved=1;endArrow=classic;html=1;exitX=0.5;exitY=1;exitDx=0;exitDy=0;entryX=0.855;entryY=0;entryDx=0;entryDy=4.35;entryPerimeter=0;" edge="1" parent="WIyWlLk6GJQsqaUBKTNV-1" source="o_49SGEgrOtvmHauCr_D-27" target="o_49SGEgrOtvmHauCr_D-10">
          <mxGeometry width="50" height="50" relative="1" as="geometry">
            <mxPoint x="460" y="240" as="sourcePoint" />
            <mxPoint x="440" y="350" as="targetPoint" />
            <Array as="points">
              <mxPoint x="500" y="260" />
              <mxPoint x="530" y="320" />
            </Array>
          </mxGeometry>
        </mxCell>
        <mxCell id="o_49SGEgrOtvmHauCr_D-23" value="" style="curved=1;endArrow=classic;html=1;exitX=0.75;exitY=1;exitDx=0;exitDy=0;entryX=0.5;entryY=0;entryDx=0;entryDy=0;entryPerimeter=0;" edge="1" parent="WIyWlLk6GJQsqaUBKTNV-1" source="o_49SGEgrOtvmHauCr_D-26" target="o_49SGEgrOtvmHauCr_D-10">
          <mxGeometry width="50" height="50" relative="1" as="geometry">
            <mxPoint x="331.1538461538462" y="261.53846153846143" as="sourcePoint" />
            <mxPoint x="440" y="350" as="targetPoint" />
            <Array as="points">
              <mxPoint x="440" y="280" />
              <mxPoint x="480" y="360" />
            </Array>
          </mxGeometry>
        </mxCell>
      </root>
    </mxGraphModel>
  </diagram>
</mxfile>
